<svg width="283" height="336" viewBox="0 0 283 336" fill="none" xmlns="http://www.w3.org/2000/svg">
<mask id="mask0" style="mask-type:alpha" maskUnits="userSpaceOnUse" x="0" y="0" width="283" height="336">
<path d="M282.383 43.8857L56.6105 5.7299e-05L-3.76293e-06 291.236L225.772 335.122L282.383 43.8857Z" fill="white"/>
</mask>
<g mask="url(#mask0)">
<path fill-rule="evenodd" clip-rule="evenodd" d="M48.7606 293.942C13.4901 256.163 15.5083 200.352 27.4067 152.326C29.3932 144.308 30.3116 135.61 35.6488 129.337C40.9858 123.069 50.9582 120.122 57.4519 125.057C62.8379 129.15 63.9673 136.678 66.0932 143.157C68.9173 151.777 74.2087 159.537 81.1586 165.254C85.7235 169.011 91.7262 171.991 97.3884 170.266C105.152 167.899 108.012 158.452 109.667 150.406C112.749 135.417 115.831 120.431 118.91 105.443C120.565 97.4047 122.278 89.1978 126.39 82.1051C130.498 75.0106 137.509 69.1007 145.589 68.5779C153.669 68.056 162.162 74.4612 162.105 82.664C162.082 86.0764 160.696 89.3316 160.213 92.7126C159.727 96.0942 160.496 100.11 163.46 101.708C166.46 103.331 170.149 101.735 173.046 99.8902C183.036 93.5388 190.867 84.2839 198.316 75.0078C205.768 65.7322 213.117 56.1789 222.5 48.9251C231.88 41.6756 243.751 36.8704 255.369 38.6541C266.986 40.4396 277.713 50.1324 278.217 62.0383C278.726 73.9799 269.698 84.0675 260.578 91.7098C247.052 103.05 231.908 112.405 215.781 119.382C212.873 120.644 209.721 122.003 208.122 124.772C205.247 129.759 209.183 136.15 214.086 139.028C219.64 142.292 226.252 143.043 232.346 145.109C238.441 147.172 244.626 151.372 245.734 157.791C247.276 166.695 238.6 173.846 230.664 178.051C214.769 186.473 197.463 192.115 179.735 194.661C173.381 195.573 166.772 196.153 161.137 199.295C155.501 202.437 151.102 209.047 152.775 215.311C154.448 221.585 161.438 224.959 167.857 225.118C174.273 225.282 180.519 223.097 186.875 222.122C198.773 220.29 212.839 224.072 217.87 235.107C221.178 242.359 219.736 251.179 215.805 258.152C211.876 265.13 205.755 270.557 199.442 275.425C177.384 292.431 151.239 304.343 123.803 307.797C96.3703 311.252 72.1815 308.634 48.7608 293.941" fill="#00CCCC"/>
<path fill-rule="evenodd" clip-rule="evenodd" d="M30.4996 366.792C31.8317 355.825 33.5861 349.855 39.4641 330.946C45.293 312.038 54.3005 290.157 66.6316 267.131C78.9183 244.077 94.4585 219.923 111.568 195.22C115.868 189.064 120.115 182.976 124.303 176.979C128.496 171.002 132.656 165.074 137.078 159.527C145.872 148.395 155.165 138.367 164.28 129.126C173.393 119.875 182.375 111.429 190.827 103.596C199.305 95.7801 207.337 88.6417 214.932 82.4531C230.094 70.0106 243.464 61.4505 252.882 55.9525C257.586 53.1873 261.304 51.1634 263.845 49.8267C265.064 49.1947 266.016 48.6973 266.738 48.3231C267.394 47.9922 267.735 47.8344 267.749 47.8575C267.762 47.8835 267.444 48.0865 266.809 48.4602C266.108 48.869 265.171 49.409 263.985 50.0964C261.493 51.5241 257.825 53.6269 253.172 56.4662C243.858 62.1179 230.626 70.7873 215.595 83.2942C208.062 89.5201 200.088 96.6894 191.662 104.538C183.252 112.407 174.315 120.871 165.251 130.121C156.186 139.37 146.948 149.381 138.219 160.464C133.829 165.989 129.716 171.868 125.514 177.862C121.333 183.859 117.09 189.945 112.792 196.1C95.6989 220.78 80.1608 244.849 67.84 267.801C55.4828 290.72 46.4134 312.468 40.4766 331.266C34.4892 350.067 32.5869 355.944 31.0827 366.863" fill="#263238"/>
<path fill-rule="evenodd" clip-rule="evenodd" d="M140.195 157.069C140.106 157.07 140.129 155.793 140.24 153.488C140.342 151.186 140.588 147.854 140.943 143.737C141.645 135.51 142.953 124.162 144.433 111.656C145.916 99.1428 147.08 87.8148 147.673 79.6052C147.977 75.4997 148.197 72.1757 148.324 69.8777C148.459 67.5792 148.58 66.3038 148.67 66.2988C148.76 66.295 148.812 67.5622 148.832 69.8582C148.864 72.1566 148.784 75.4926 148.593 79.6139C148.237 87.8573 147.215 99.2415 145.73 111.768C144.241 124.107 142.891 135.268 141.863 143.799C141.419 147.654 141.046 150.904 140.749 153.511C140.479 155.803 140.288 157.072 140.195 157.069Z" fill="#263238"/>
<path fill-rule="evenodd" clip-rule="evenodd" d="M246.081 159.331C246.063 159.433 244.578 159.298 241.919 158.963C239.258 158.646 235.412 158.164 230.638 157.722C221.102 156.768 207.885 155.915 193.251 155.625C178.618 155.359 165.36 155.694 155.777 156.215C150.98 156.441 147.105 156.73 144.422 156.914C141.743 157.109 140.255 157.167 140.242 157.06C140.233 156.956 141.703 156.698 144.375 156.32C147.043 155.955 150.921 155.502 155.723 155.134C165.318 154.334 178.62 153.829 193.3 154.093C207.973 154.386 221.232 155.413 230.764 156.649C235.535 157.229 239.372 157.874 242.013 158.377C244.651 158.892 246.099 159.226 246.081 159.331ZM215.44 245.645C215.442 245.701 214.931 245.804 213.956 245.951C212.808 246.102 211.395 246.288 209.686 246.519L193.971 248.436C180.703 250.061 162.398 252.527 142.176 255.277C121.943 258.033 103.602 260.319 90.3065 261.655C83.6568 262.323 78.2752 262.809 74.5511 263.064C72.8283 263.17 71.4109 263.256 70.2583 263.331C69.2793 263.373 68.7597 263.368 68.7587 263.311C68.7552 263.255 69.2648 263.154 70.2412 263.005L74.5106 262.439C78.448 261.957 83.7576 261.312 90.2221 260.522C103.491 258.897 121.798 256.432 142.028 253.677C162.251 250.923 180.59 248.636 193.891 247.301C200.538 246.629 205.92 246.147 209.649 245.892C211.369 245.786 212.784 245.696 213.939 245.624C214.92 245.583 215.433 245.589 215.44 245.645Z" fill="#263238"/>
</g>
</svg>
